# xmcd CD database file
#
# Track frame offsets:
#	150
#	23948
#	44348
#	65843
#	88708
#	107445
#	129258
#	149963
#	168275
#	183160
#
# Disc length: 2664 seconds
#
# Revision: 2
# Processed by: cddbd v1.5.2PL0 Copyright (c) Steve Scherf et al.
# Submitted via: CDex 1.70beta2
#
DISCID=8a0a660a
DTITLE=SHIGERU SUZUKI - SUNSET HILLS HOTEL
DYEAR=1987
DGENRE=Pop
TTITLE0=NIGHT FLIGHT
TTITLE1=CAFE ON THE WAVE
TTITLE2=SWEET RESERVATION
TTITLE3=6:30PM BREEZE
TTITLE4=WEST BEACH DRIVE
TTITLE5=TRANSIT AIRPORT
TTITLE6=PURPLE ROSE GOOD - BYE
TTITLE7=ON THE SECOND HONEYMOON
TTITLE8=LONG DISTANCE CALL
TTITLE9=HER SUNSET SMILE
EXTD=YEAR: 1987
EXTT0=
EXTT1=
EXTT2=
EXTT3=
EXTT4=
EXTT5=
EXTT6=
EXTT7=
EXTT8=
EXTT9=
PLAYORDER=
